<?xml version="1.0" encoding="UTF-8" standalone="no" ?>
<!DOCTYPE svg PUBLIC "-//W3C//DTD SVG 1.1//EN" "http://www.w3.org/Graphics/SVG/1.1/DTD/svg11.dtd">
<svg xmlns="http://www.w3.org/2000/svg" xmlns:xlink="http://www.w3.org/1999/xlink" version="1.1" width="106" height="85" viewBox="0 0 106 85" xml:space="preserve">
<desc>Created with Fabric.js 5.3.0</desc>
<defs>
</defs>
<g transform="matrix(0.0756796124 0 0 0.2240551877 52.992593273 43.703783858)" id="KaTH588uUTFyCFwTIhllZ"  >
<path style="stroke: rgb(16,127,123); stroke-width: 0; stroke-dasharray: none; stroke-linecap: butt; stroke-dashoffset: 0; stroke-linejoin: miter; stroke-miterlimit: 4; fill: rgb(0,106,255); fill-rule: nonzero; opacity: 1;" vector-effect="non-scaling-stroke"  transform=" translate(0, 0)" d="M -83.33333 -100.44802 C -83.33333 -103.01245 -79.17195000000001 -105.37056 -72.49375 -106.59043 C -65.81556 -107.8103 -57.695130000000006 -107.69564 -51.341660000000005 -106.29176 L 70.34232999999999 -79.4042 L 70.34232999999999 -79.4042 C 78.44830999999999 -77.61309 83.33335 -74.56194 83.33335 -71.29016 L 83.33335 71.00628999999999 L 83.33335 71.00628999999999 C 83.33335 75.15674999999999 77.18566 79.03197999999999 66.95465 81.33068999999999 L -42.618300000000005 105.94966 L -42.618300000000005 105.94966 C -50.660250000000005 107.75653 -60.99298 107.92255999999999 -69.50640000000001 106.38167999999999 C -78.01982000000001 104.84080999999999 -83.33331000000001 101.84293 -83.33331000000001 98.58050999999999 z" stroke-linecap="round" />
</g>
<g transform="matrix(1.6583022983 0 0 1.3175980845 51.8189374189 42.5)" id="CtNmyJRAWkBWlrA3D7lSC"  >
<path style="stroke: rgb(80,13,126); stroke-width: 0; stroke-dasharray: none; stroke-linecap: butt; stroke-dashoffset: 0; stroke-linejoin: miter; stroke-miterlimit: 4; fill: rgb(0,106,255); fill-rule: nonzero; opacity: 1;" vector-effect="non-scaling-stroke"  transform=" translate(0, 0)" d="M 13.76128 9.58156 C 15.366909999999999 7.96467 16.301569999999998 5.516909999999999 16.301569999999998 2.9288499999999997 L 16.301569999999998 -3.6479500000000007 L 16.301569999999998 -3.6479500000000007 C 16.301569999999998 -6.527040000000001 15.171699999999998 -9.220320000000001 13.282669999999998 -10.84412 L -0.833770000000003 -22.97851 L -0.833770000000003 -22.97851 C -1.295870000000003 -23.37573 -1.827640000000003 -23.62595 -2.383460000000003 -23.70769 L -30.27182 -27.80923 L -30.27182 -27.80923 C -30.73128 -27.8768 -31.069170000000003 -28.38358 -31.04228 -28.9648 C -31.01539 -29.54602 -30.63305 -30.00002 -30.17047 -30.00002 L 10.71481 -30.00002 L 10.71481 -30.00002 C 11.71537 -30.00002 12.68355 -29.553649999999998 13.44735 -28.740199999999998 L 29.003970000000002 -12.1724 L 29.003970000000002 -12.1724 C 30.29765 -10.79463 31.043760000000002 -8.7699 31.043760000000002 -6.637 L 31.043760000000002 7.00266 L 31.043760000000002 7.00266 C 31.043760000000002 8.90363 30.378780000000003 10.708179999999999 29.225780000000004 11.936129999999999 L 13.212700000000005 28.99006 L 13.212700000000005 28.99006 C 12.600400000000006 29.64216 11.824270000000006 29.99999 11.022180000000006 29.99999 L -1.5208599999999937 29.99999 L -1.5208599999999937 29.99999 C -2.2648999999999937 29.99999 -2.9277899999999937 29.40853 -3.174099999999994 28.52489 C -3.4204099999999937 27.64125 -3.196409999999994 26.658189999999998 -2.6154399999999938 26.07315 z" stroke-linecap="round" />
</g>
</svg>